<svg xmlns="http://www.w3.org/2000/svg" viewBox="0 0 32 32"><path fill="currentColor" d="M16 7.4A8.6 8.6 0 1 0 24.6 16 8.6 8.6 0 0 0 16 7.4zm0 14.1A5.5 5.5 0 1 1 21.5 16 5.5 5.5 0 0 1 16 21.5zm9.1-14.6a2 2 0 1 1-2-2 2 2 0 0 1 2 2zM31.9 8.8a8.59 8.59 0 0 0-2.3-6A8.59 8.59 0 0 0 23.6.1C21.2-.3 10.8-.3 8.4.1a8.59 8.59 0 0 0-6 2.3A8.59 8.59 0 0 0 .1 8.4C-.3 10.8-.3 21.2.1 23.6a8.59 8.59 0 0 0 2.3 6 8.59 8.59 0 0 0 6 2.3c2.4.4 12.8.4 15.2 0a8.59 8.59 0 0 0 6-2.3 8.59 8.59 0 0 0 2.3-6c.4-2.4.4-12.8 0-15.2zM28.7 28.7a5.69 5.69 0 0 1-3.2 3.2c-2.2.9-7.4.7-9.5.7s-7.4.2-9.5-.7a5.69 5.69 0 0 1-3.2-3.2c-.9-2.2-.7-7.4-.7-9.5s-.2-7.4.7-9.5a5.69 5.69 0 0 1 3.2-3.2c2.2-.9 7.4-.7 9.5-.7s7.4-.2 9.5.7a5.69 5.69 0 0 1 3.2 3.2c.9 2.2.7 7.4.7 9.5s.2 7.4-.7 9.5z"/></svg>