<svg xmlns="http://www.w3.org/2000/svg" viewBox="0 0 32 32"><path fill="currentColor" d="M32 6.1c-1.2.5-2.4.9-3.6 1.1 1.3-.8 2.3-2.1 2.8-3.5-1.2.7-2.6 1.3-4 1.6C25.5 3.5 23.8 2 21.8 2c-3 0-5.4 2.4-5.4 5.4 0 .4 0 .8.1 1.2-4.5-.2-8.6-2.4-11.3-5.7-.5.8-.8 1.7-.8 2.6 0 1.8 1 3.3 2.5 4.2-1 0-2-.4-2.8-.8v.1c0 2.5 1.8 4.5 4.2 5-.4.1-.8.2-1.2.2-.3 0-.6 0-.9-.1.6 2 2.6 3.5 4.9 3.6-1.8 1.4-4 2.2-6.4 2.2-.4 0-.7 0-1-.1 2.3 1.5 5.1 2.4 8.1 2.4 9.7 0 14.9-8 14.9-14.9 0-.2 0-.4 0-.6 1-.8 1.9-1.8 2.6-2.9z"/></svg>